<svg xmlns="http://www.w3.org/2000/svg" width="125.689" height="113.916" viewBox="0 0 125.689 113.916">
  <g id="Group_5" data-name="Group 5" transform="translate(-914.14 -76.527)">
    <path id="Path_411" data-name="Path 411" d="M920.52,142.509H987.3l-34.432,27.586-5.458-4.862-4.465.695-2.382,2.282-6.946-7.641,2.084-2.084,2.084-4.763L935.7,150.05l-3.374-1.29-4.366,1.29-2.282,1.29-6.251-7.442Z" transform="translate(1.445 18.026)" fill="#fff" stroke="#707070" stroke-width="1"/>
    <path id="Path_412" data-name="Path 412" d="M986.21,170.095H919.429l34.433-27.586,5.458,4.862,4.465-.695,2.381-2.282,6.946,7.641-2.084,2.084-2.084,4.763,2.084,3.672,3.374,1.29,4.366-1.29,2.282-1.29,6.252,7.442Z" transform="translate(46.162 -63.459)" fill="#fff" stroke="#707070" stroke-width="1"/>
    <g id="Group_4" data-name="Group 4" transform="translate(914.14 76.527)">
      <path id="Path_402" data-name="Path 402" d="M1139.68,423.112H1212c.21,0,.419,0,.629,0a1.886,1.886,0,1,1,.029,3.747c-2.017.007-4.034,0-6.051,0-1.414,0-2.83-.038-4.242.022a2.312,2.312,0,0,0-1.32.474q-15.6,13.312-31.162,26.666c-1.4,1.2-2.251,1.136-3.452-.255-.685-.793-1.349-1.6-2.049-2.382a3.6,3.6,0,0,0-5.2-.379c-.587.482-1.145,1-1.736,1.475a1.826,1.826,0,0,1-2.722-.216q-3.6-4.158-7.157-8.353a1.84,1.84,0,0,1,.228-2.777c.547-.488,1.119-.949,1.668-1.435a3.636,3.636,0,1,0-4.691-5.554c-.587.481-1.146,1-1.734,1.477a1.847,1.847,0,0,1-2.778-.232q-3.568-4.134-7.106-8.294a1.868,1.868,0,0,1,.311-2.882,20.175,20.175,0,0,1,1.793-1.4,1.549,1.549,0,0,0,.716-1.586,3.7,3.7,0,0,0-3.7-3.621c-.786-.012-1.572.014-2.357-.008a1.785,1.785,0,0,1-1.865-1.824q-.042-5.618,0-11.237a1.8,1.8,0,0,1,1.867-1.83c.837-.033,1.677.011,2.514-.02a3.625,3.625,0,0,0-.053-7.248c-.785-.018-1.572.008-2.357-.007a1.821,1.821,0,0,1-1.974-1.884q-.038-5.579,0-11.158a1.811,1.811,0,0,1,1.918-1.859c.759-.021,1.519.006,2.279-.01a3.632,3.632,0,0,0,3.711-3.744c.02-1.886,0-3.772.006-5.658,0-1.489.666-2.16,2.159-2.161q11.276-.007,22.552,0a1.887,1.887,0,0,1,2.016,1.294,1.787,1.787,0,0,1-.779,2.117,3.008,3.008,0,0,1-1.347.291q-9.9.027-19.8.012h-1.056c0,.6.014,1.142,0,1.68a27.482,27.482,0,0,1-.18,3.993,7.289,7.289,0,0,1-7.057,5.929c-.2.006-.408.026-.655.042v7.325a7.565,7.565,0,0,1,6.578,3.252,6.913,6.913,0,0,1,1.278,4.6c-.32,4.139-2.928,6.467-7.851,7.011v7.32a7.677,7.677,0,0,1,6.132,2.659C1139.581,418.367,1139.849,420.621,1139.68,423.112Zm56.1,3.8h-57.853l4.026,4.7a7.5,7.5,0,0,1,10.62.235c2.908,3.135,2.6,7.055-.95,11.045l4.767,5.565a7.515,7.515,0,0,1,6.408-2.017c2.491.369,4.155,1.958,5.61,3.918Z" transform="translate(-1128.039 -340.955)" fill="#fed32c"/>
      <path id="Path_403" data-name="Path 403" d="M1490.963,239.141v-7.326a7.508,7.508,0,0,1-6.136-2.653c-1.619-1.884-1.9-4.135-1.673-6.631h-66.61c-1.658,0-2.55-.667-2.524-1.886.026-1.2.887-1.829,2.51-1.83,1.283,0,2.568-.032,3.85.014a2.005,2.005,0,0,0,1.47-.57q15.028-12.893,30.07-25.769c.418-.358.832-.72,1.254-1.073a1.9,1.9,0,0,1,2.954.208c.761.865,1.491,1.758,2.258,2.618a3.59,3.59,0,0,0,5.246.393c.585-.484,1.144-1,1.737-1.474a1.814,1.814,0,0,1,2.667.2q3.655,4.215,7.256,8.475a1.782,1.782,0,0,1-.2,2.6c-.575.535-1.195,1.021-1.78,1.545a3.634,3.634,0,1,0,4.727,5.519c.585-.484,1.147-1,1.737-1.474a1.854,1.854,0,0,1,2.725.207q3.6,4.159,7.16,8.351a1.829,1.829,0,0,1-.165,2.726c-.738.706-1.524,1.363-2.244,2.085a1.405,1.405,0,0,0-.38.868,3.562,3.562,0,0,0,3.64,3.775c.733.014,1.467-.011,2.2.007a1.885,1.885,0,0,1,2.042,2.068q.01,5.383,0,10.766a1.872,1.872,0,0,1-2.106,2.063c-.734,0-1.468-.017-2.2.007a3.633,3.633,0,0,0,.04,7.265c.759.018,1.52-.016,2.279.011a1.868,1.868,0,0,1,1.987,2.04q.012,5.422,0,10.844a1.84,1.84,0,0,1-2,2c-.681.008-1.362-.006-2.043,0a3.645,3.645,0,0,0-3.849,3.844c-.012,1.834,0,3.667,0,5.5-.006,1.561-.7,2.255-2.254,2.256q-7.073,0-14.145,0a1.877,1.877,0,0,1-1.909-2.631,1.954,1.954,0,0,1,1.987-1.121c3.876.014,7.753.006,11.63.006h.947c0-1.448-.012-2.827,0-4.207a7.312,7.312,0,0,1,5.771-7.187c.659-.149,1.345-.177,2.072-.267V253.99a7.427,7.427,0,0,1-6.312-2.891,7.264,7.264,0,0,1-1.526-4.994C1483.3,242.226,1486.111,239.7,1490.963,239.141Zm-6.086-20.382-4.007-4.674a7.53,7.53,0,0,1-10.56-.179,7.263,7.263,0,0,1-2.053-4.8,7.479,7.479,0,0,1,2.953-6.291l-4.783-5.579c-.138.1-.206.135-.267.184-3.6,2.89-7.88,2.493-10.863-1.007-.3-.351-.611-.69-.946-1.066l-27.336,23.415Z" transform="translate(-1369.067 -190.813)" fill="#fed32c"/>
      <path id="Path_404" data-name="Path 404" d="M1251.4,428.119v32.953h80.526V428.119h-50.619c-1.5,0-2.346-.715-2.308-1.946a1.822,1.822,0,0,1,1.657-1.787c.259-.026.523-.011.785-.011h51.79c1.9,0,2.473.577,2.473,2.489q0,17.761,0,35.522c0,1.871-.571,2.444-2.432,2.444h-83.225c-1.879,0-2.449-.565-2.449-2.422q0-17.84,0-35.679c0-1.732.625-2.353,2.367-2.354q8.213,0,16.425,0a1.907,1.907,0,0,1,2.088,1.51,1.887,1.887,0,0,1-2,2.228c-2.305.017-4.611,0-6.916.005Z" transform="translate(-1228.809 -387.658)" fill="#fed32c"/>
      <path id="Path_405" data-name="Path 405" d="M1520.208,509l4.919,7.5c.718,1.094.652,1.721-.243,2.33-.981.667-1.759.475-2.484-.621-1.414-2.137-2.824-4.277-4.268-6.463-.792.813-1.51,1.557-1.368,2.823a27.055,27.055,0,0,1,.022,3.06c0,.956-.313,1.31-1.257,1.443-1.285.181-1.9-.359-1.9-1.659q0-7.342,0-14.683c0-1.062.4-1.406,1.6-1.4,1.181,0,1.565.352,1.566,1.43q0,2.552,0,5.1v.971c.3-.381.465-.571.612-.771q2.21-3,4.417-6.008a1.368,1.368,0,0,1,2.2-.31,1.346,1.346,0,0,1,.223,2.2C1522.907,505.62,1521.568,507.294,1520.208,509Z" transform="translate(-1453.016 -452.515)" fill="#fed32c"/>
      <path id="Path_406" data-name="Path 406" d="M1602,504.12v4.8c1.108,0,2.175-.006,3.241,0,.962.007,1.4.418,1.39,1.293-.006.854-.4,1.21-1.355,1.215-1.069.006-2.137,0-3.262,0v4.819c.284.013.561.035.837.035,1.859,0,3.719,0,5.578,0,.962,0,1.372.419,1.387,1.385s-.4,1.417-1.343,1.418q-4.045.008-8.091,0c-1.271,0-1.616-.365-1.616-1.644q0-7.306,0-14.611c0-1.141.347-1.5,1.5-1.5q4.163-.013,8.327,0c.834,0,1.22.45,1.22,1.366s-.391,1.406-1.2,1.416c-1.859.021-3.718.008-5.577.008Z" transform="translate(-1524.775 -452.516)" fill="#fed32c"/>
      <path id="Path_407" data-name="Path 407" d="M1427.587,510.1c0-1.335-.047-2.672.011-4a4.707,4.707,0,0,1,4.162-4.762,7.124,7.124,0,0,1,5.153.82,4.042,4.042,0,0,1,2.026,4.045c-.076.882-.472,1.167-1.518,1.17-1.132,0-1.532-.271-1.644-1.13a2.185,2.185,0,0,0-2.545-2.235,2.228,2.228,0,0,0-2.462,2.362c-.066,2.511-.079,5.027,0,7.538a2.548,2.548,0,0,0,3.876,2.141,2.191,2.191,0,0,0,1.109-1.872,1.7,1.7,0,0,1,2.72-1.168,1.606,1.606,0,0,1,.464,1.015,4.464,4.464,0,0,1-3.341,4.719,7.63,7.63,0,0,1-4.258.163,4.7,4.7,0,0,1-3.742-4.718C1427.541,512.821,1427.586,511.457,1427.587,510.1Z" transform="translate(-1380.487 -452.394)" fill="#fed32c"/>
      <path id="Path_408" data-name="Path 408" d="M1305.559,504.188c-1.136,0-2.177.005-3.218,0-.92-.006-1.346-.466-1.346-1.432s.419-1.415,1.349-1.416q4.791,0,9.582,0c.947,0,1.349.427,1.349,1.4s-.411,1.436-1.329,1.443c-1.018.007-2.036,0-3.151,0-.016.341-.043.641-.043.941q0,6.2,0,12.409c0,.616-.052,1.167-.732,1.4a2.02,2.02,0,0,1-2.144-.272,1.6,1.6,0,0,1-.308-1.07c-.02-4.136-.013-8.273-.013-12.409Z" transform="translate(-1273.809 -452.526)" fill="#fed32c"/>
      <path id="Path_409" data-name="Path 409" d="M1681.17,504.189v13c0,1.473-.373,1.915-1.613,1.909-1.211-.006-1.565-.427-1.565-1.862q0-6.051,0-12.1v-.946c-1.115,0-2.153,0-3.191,0-.977-.005-1.383-.448-1.368-1.474.014-.987.4-1.374,1.375-1.375q4.755,0,9.509,0c.954,0,1.377.424,1.394,1.376.017.98-.44,1.467-1.394,1.472C1683.3,504.193,1682.285,504.189,1681.17,504.189Z" transform="translate(-1587.704 -452.528)" fill="#fed32c"/>
      <path id="Path_410" data-name="Path 410" d="M1393.149,510.268q0,3.693,0,7.386c0,1.018-.489,1.454-1.6,1.454s-1.591-.434-1.592-1.453q0-7.465,0-14.929c0-1.011.412-1.368,1.551-1.378,1.194-.011,1.632.349,1.635,1.378C1393.153,505.239,1393.149,507.753,1393.149,510.268Z" transform="translate(-1348.788 -452.535)" fill="#fed32c"/>
    </g>
  </g>
</svg>
